<?xml version="1.0" encoding="iso-8859-1"?>
<!-- Generator: Adobe Illustrator 19.0.0, SVG Export Plug-In . SVG Version: 6.00 Build 0)  -->
<svg version="1.1" id="Capa_1" xmlns="http://www.w3.org/2000/svg" xmlns:xlink="http://www.w3.org/1999/xlink" x="0px" y="0px"
	 viewBox="0 0 368 368" style="enable-background:new 0 0 368 368;" xml:space="preserve">
<g>
	<g>
		<circle cx="64" cy="192" r="16"/>
	</g>
</g>
<g>
	<g>
		<circle cx="176" cy="304" r="16"/>
	</g>
</g>
<g>
	<g>
		<circle cx="64" cy="304" r="16"/>
	</g>
</g>
<g>
	<g>
		<circle cx="176" cy="192" r="16"/>
	</g>
</g>
<g>
	<g>
		<circle cx="192" cy="64" r="16"/>
	</g>
</g>
<g>
	<g>
		<circle cx="304" cy="176" r="16"/>
	</g>
</g>
<g>
	<g>
		<path d="M328,0H168c-22.056,0-40,17.944-40,40v88H40c-22.056,0-40,17.944-40,40v160c0,22.056,17.944,40,40,40h160
			c22.056,0,40-17.944,40-40v-88h88c22.056,0,40-17.944,40-40V40C368,17.944,350.056,0,328,0z M224,231.984c0,0.008,0,0.016,0,0.016
			v0.016V328c0,13.232-10.768,24-24,24H40c-13.232,0-24-10.768-24-24V168c0-13.232,10.768-24,24-24h160c13.232,0,24,10.768,24,24
			V231.984z M352,200c0,13.232-10.768,24-24,24h-88v-56c0-22.056-17.944-40-40-40h-56V40c0-13.232,10.768-24,24-24h160
			c13.232,0,24,10.768,24,24V200z"/>
	</g>
</g>
<g>
</g>
<g>
</g>
<g>
</g>
<g>
</g>
<g>
</g>
<g>
</g>
<g>
</g>
<g>
</g>
<g>
</g>
<g>
</g>
<g>
</g>
<g>
</g>
<g>
</g>
<g>
</g>
<g>
</g>
</svg>
